<svg xmlns="http://www.w3.org/2000/svg" xmlns:xlink="http://www.w3.org/1999/xlink" width="740" height="126.84"><rect width="740" height="126.84" class="a" rx="0" ry="0"/><svg xmlns="http://www.w3.org/2000/svg" xmlns:xlink="http://www.w3.org/1999/xlink" width="700" height="86.84" x="20" y="20" viewBox="0 0 70 8.684"><style>.a{fill:#282d35}.b{font-family:&apos;Fira Code&apos;,Monaco,Consolas,Menlo,&apos;Bitstream Vera Sans Mono&apos;,&apos;Powerline Symbols&apos;,monospace}.c{fill:transparent}.d{fill:#66c2cd}.d,.e,.f{white-space:pre}.e{fill:#b9c0cb}.f{fill:#71bef2}</style><g class="b" font-family="'Fira Code',Monaco,Consolas,Menlo,'Bitstream Vera Sans Mono','Powerline Symbols',monospace" font-size="1.67"><defs><symbol id="a"><rect width="70" height="5" x="0" y="0" class="c"/></symbol></defs><rect width="70" height="8.684" class="a"/><svg width="70" x="0" y="0"><svg x="0"><use xlink:href="#a"/><text x="0" y="1.67" class="d">ℹ</text><text x="2.004" y="1.67" class="e">Data</text><text x="7.014" y="1.67" class="e">columns:</text><text x="16.032" y="1.67" class="f">&quot;mpg&quot;</text><text x="21.042" y="1.67" class="e">,</text><text x="23.046" y="1.67" class="f">&quot;cyl&quot;</text><text x="28.056" y="1.67" class="e">,</text><text x="30.06" y="1.67" class="f">&quot;disp&quot;</text><text x="36.072" y="1.67" class="e">,</text><text x="38.076" y="1.67" class="f">&quot;hp&quot;</text><text x="42.084" y="1.67" class="e">,</text><text x="44.088" y="1.67" class="f">&quot;drat&quot;</text><text x="50.1" y="1.67" class="e">,</text><text x="52.104" y="1.67" class="f">&quot;wt&quot;</text><text x="56.112" y="1.67" class="e">,</text><text x="58.116" y="1.67" class="f">&quot;qsec&quot;</text><text x="64.128" y="1.67" class="e">,</text><text x="66.132" y="1.67" class="f">&quot;vs&quot;</text><text x="0" y="3.841" class="e">,</text><text x="2.004" y="3.841" class="f">&quot;am&quot;</text><text x="6.012" y="3.841" class="e">,</text><text x="8.016" y="3.841" class="f">&quot;gear&quot;</text><text x="14.028" y="3.841" class="e">,</text><text x="16.032" y="3.841" class="e">and</text><text x="20.04" y="3.841" class="f">&quot;carb&quot;</text><text x="26.052" y="3.841" class="e">.</text><text x="0" y="6.012" class="d">ℹ</text><text x="2.004" y="6.012" class="e">Data</text><text x="7.014" y="6.012" class="e">columns:</text><text x="16.032" y="6.012" class="f">&quot;mpg&quot;</text><text x="21.042" y="6.012" class="e">,</text><text x="23.046" y="6.012" class="f">&quot;cyl&quot;</text><text x="28.056" y="6.012" class="e">,</text><text x="30.06" y="6.012" class="f">&quot;disp&quot;</text><text x="36.072" y="6.012" class="e">,</text><text x="38.076" y="6.012" class="f">&quot;hp&quot;</text><text x="42.084" y="6.012" class="e">,</text><text x="44.088" y="6.012" class="f">&quot;drat&quot;</text><text x="50.1" y="6.012" class="e">,</text><text x="52.104" y="6.012" class="f">&quot;wt&quot;</text><text x="56.112" y="6.012" class="e">,</text><text x="58.116" y="6.012" class="f">&quot;qsec&quot;</text><text x="64.128" y="6.012" class="e">,</text><text x="0" y="8.183" class="f">&quot;vs&quot;</text><text x="4.008" y="8.183" class="e">,</text><text x="6.012" y="8.183" class="f">&quot;am&quot;</text><text x="10.02" y="8.183" class="e">,</text><text x="12.024" y="8.183" class="f">&quot;gear&quot;</text><text x="18.036" y="8.183" class="e">,</text><text x="20.04" y="8.183" class="e">and</text><text x="24.048" y="8.183" class="f">&quot;carb&quot;</text><text x="30.06" y="8.183" class="e">.</text></svg></svg></g></svg></svg>