<svg xmlns="http://www.w3.org/2000/svg" xmlns:xlink="http://www.w3.org/1999/xlink" width="740" height="495.91"><rect width="740" height="495.91" class="a" rx="0" ry="0"/><svg xmlns="http://www.w3.org/2000/svg" xmlns:xlink="http://www.w3.org/1999/xlink" width="700" height="455.91" x="20" y="20" viewBox="0 0 70 45.591"><style>.a{fill:#282d35}.b{font-family:&apos;Fira Code&apos;,Monaco,Consolas,Menlo,&apos;Bitstream Vera Sans Mono&apos;,&apos;Powerline Symbols&apos;,monospace}.c{fill:#b9c0cb;white-space:pre}.d{fill:transparent}</style><g class="b" font-family="'Fira Code',Monaco,Consolas,Menlo,'Bitstream Vera Sans Mono','Powerline Symbols',monospace" font-size="1.67"><defs><symbol id="1"><text x="0" y="1.67" class="c">┌───────────┐</text></symbol><symbol id="2"><text x="0" y="1.67" class="c">│</text><text x="12.024" y="1.67" class="c">│</text></symbol><symbol id="3"><text x="0" y="1.67" class="c">│</text><text x="4.008" y="1.67" class="c">there</text><text x="12.024" y="1.67" class="c">│</text></symbol><symbol id="4"><text x="0" y="1.67" class="c">└───────────┘</text></symbol><symbol id="5"><text x="0" y="1.67" class="c">│</text><text x="5.01" y="1.67" class="c">you!</text><text x="12.024" y="1.67" class="c">│</text></symbol><symbol id="a"><rect width="70" height="22" x="0" y="0" class="d"/></symbol></defs><rect width="70" height="45.591" class="a"/><svg width="70" x="0" y="0"><svg x="0"><use xlink:href="#a"/><use y="0" xlink:href="#1"/><use y="2.171" xlink:href="#2"/><text x="0" y="6.012" class="c">│</text><text x="4.008" y="6.012" class="c">Hi</text><text x="12.024" y="6.012" class="c">│</text><use y="6.513" xlink:href="#3"/><text x="0" y="10.354" class="c">│</text><text x="4.008" y="10.354" class="c">you!</text><text x="12.024" y="10.354" class="c">│</text><use y="10.855" xlink:href="#2"/><use y="13.026" xlink:href="#4"/><use y="15.197" xlink:href="#1"/><use y="17.368" xlink:href="#2"/><text x="0" y="21.209" class="c">│</text><text x="6.012" y="21.209" class="c">Hi</text><text x="12.024" y="21.209" class="c">│</text><use y="21.71" xlink:href="#3"/><use y="23.881" xlink:href="#5"/><use y="26.052" xlink:href="#2"/><use y="28.223" xlink:href="#4"/><use y="30.394" xlink:href="#1"/><use y="32.565" xlink:href="#2"/><text x="0" y="36.406" class="c">│</text><text x="7.014" y="36.406" class="c">Hi</text><text x="12.024" y="36.406" class="c">│</text><use y="36.907" xlink:href="#3"/><use y="39.078" xlink:href="#5"/><use y="41.249" xlink:href="#2"/><use y="43.42" xlink:href="#4"/></svg></svg></g></svg></svg>