<svg xmlns="http://www.w3.org/2000/svg" xmlns:xlink="http://www.w3.org/1999/xlink" width="740" height="170.26"><rect width="740" height="170.26" class="a" rx="0" ry="0"/><svg xmlns="http://www.w3.org/2000/svg" xmlns:xlink="http://www.w3.org/1999/xlink" width="700" height="130.26" x="20" y="20" viewBox="0 0 70 13.026"><style>.a{fill:#282d35}.b{font-family:&apos;Fira Code&apos;,Monaco,Consolas,Menlo,&apos;Bitstream Vera Sans Mono&apos;,&apos;Powerline Symbols&apos;,monospace}.c{fill:#d75f5f;white-space:pre}.d{fill:#5f875f}.f{fill:transparent}.g{fill:#b9bfca;white-space:pre}</style><g class="b" font-family="'Fira Code',Monaco,Consolas,Menlo,'Bitstream Vera Sans Mono','Powerline Symbols',monospace" font-size="1.67"><defs><symbol id="1"><text x="27.054" y="1.67" class="c">│</text><rect width="15" height="2.171" x="28.056" y="0" class="d"/><text x="43.086" y="1.67" class="c">│</text></symbol><symbol id="a"><rect width="70" height="7" x="0" y="0" class="f"/></symbol></defs><rect width="70" height="13.026" class="a"/><svg width="70" x="0" y="0"><svg x="0"><use xlink:href="#a"/><text x="27.054" y="1.67" class="c">╭───────────────╮</text><use y="2.171" xlink:href="#1"/><text x="27.054" y="6.012" class="c">│</text><rect width="3" height="2.171" x="28.056" y="4.342" class="d"/><rect width="9" height="2.171" x="31.062" y="4.342" class="d"/><text x="31.062" y="6.012" class="g">★ Hello ★</text><rect width="3" height="2.171" x="40.08" y="4.342" class="d"/><text x="43.086" y="6.012" class="c">│</text><text x="27.054" y="8.183" class="c">│</text><rect width="3" height="2.171" x="28.056" y="6.513" class="d"/><rect width="8" height="2.171" x="31.062" y="6.513" class="d"/><text x="31.062" y="8.183" class="g">there!</text><rect width="4" height="2.171" x="39.078" y="6.513" class="d"/><text x="43.086" y="8.183" class="c">│</text><use y="8.684" xlink:href="#1"/><text x="27.054" y="12.525" class="c">╰───────────────╯</text></svg></svg></g></svg></svg>