<svg xmlns="http://www.w3.org/2000/svg" xmlns:xlink="http://www.w3.org/1999/xlink" width="740" height="148.55"><rect width="740" height="148.55" class="a" rx="0" ry="0"/><svg xmlns="http://www.w3.org/2000/svg" xmlns:xlink="http://www.w3.org/1999/xlink" width="700" height="108.55" x="20" y="20" viewBox="0 0 70 10.855"><style>.a{fill:#282d35}.b{font-family:&apos;Fira Code&apos;,Monaco,Consolas,Menlo,&apos;Bitstream Vera Sans Mono&apos;,&apos;Powerline Symbols&apos;,monospace}.c{fill:transparent}.d{fill:#e88388}.d,.e,.f,.g,.h,.i{white-space:pre}.e{fill:#dbab79}.f{fill:#66c2cd}.g{fill:#71bef2}.h{fill:#b9c0cb}.i{fill:#a8cc8c}</style><g class="b" font-family="'Fira Code',Monaco,Consolas,Menlo,'Bitstream Vera Sans Mono','Powerline Symbols',monospace" font-size="1.67"><defs><symbol id="a"><rect width="70" height="6" x="0" y="0" class="c"/></symbol></defs><rect width="70" height="10.855" class="a"/><svg width="70" x="0" y="0"><svg x="0"><use xlink:href="#a"/><text x="0" y="1.67" class="d">function</text><text x="9.018" y="1.67" class="e">()</text><text x="0" y="3.841" class="e">{</text><text x="4.008" y="6.012" class="f">message</text><text x="11.022" y="6.012" class="g">(</text><text x="12.024" y="6.012" class="e">&quot;Just</text><text x="18.036" y="6.012" class="e">an</text><text x="21.042" y="6.012" class="e">example</text><text x="29.058" y="6.012" class="e">function&quot;</text><text x="38.076" y="6.012" class="g">)</text><text x="4.008" y="8.183" class="h">graphics::</text><text x="14.028" y="8.183" class="f">pairs</text><text x="19.038" y="8.183" class="g">(</text><text x="20.04" y="8.183" class="h">iris,</text><text x="26.052" y="8.183" class="h">col</text><text x="30.06" y="8.183" class="h">=</text><text x="32.064" y="8.183" class="g">1</text><text x="33.066" y="8.183" class="i">:</text><text x="34.068" y="8.183" class="g">4)</text><text x="0" y="10.354" class="e">}</text></svg></svg></g></svg></svg>