<svg xmlns="http://www.w3.org/2000/svg" xmlns:xlink="http://www.w3.org/1999/xlink" width="740" height="213.68"><rect width="740" height="213.68" class="a" rx="0" ry="0"/><svg xmlns="http://www.w3.org/2000/svg" xmlns:xlink="http://www.w3.org/1999/xlink" width="700" height="173.68" x="20" y="20" viewBox="0 0 70 17.368"><style>.a{fill:#282d35}.b{font-family:&apos;Fira Code&apos;,Monaco,Consolas,Menlo,&apos;Bitstream Vera Sans Mono&apos;,&apos;Powerline Symbols&apos;,monospace}.c{fill:transparent}.d,.e{fill:#b9c0cb;font-style:italic;white-space:pre}.e{font-weight:700}</style><g class="b" font-family="'Fira Code',Monaco,Consolas,Menlo,'Bitstream Vera Sans Mono','Powerline Symbols',monospace" font-size="1.67"><defs><symbol id="a"><rect width="70" height="9" x="0" y="0" class="c"/></symbol></defs><rect width="70" height="17.368" class="a"/><svg width="70" x="0" y="0"><svg x="0"><use xlink:href="#a"/><text x="4.008" y="3.841" class="d">“The</text><text x="9.018" y="3.841" class="d">real</text><text x="14.028" y="3.841" class="d">problem</text><text x="22.044" y="3.841" class="d">is</text><text x="25.05" y="3.841" class="d">that</text><text x="30.06" y="3.841" class="d">programmers</text><text x="42.084" y="3.841" class="d">have</text><text x="47.094" y="3.841" class="d">spent</text><text x="53.106" y="3.841" class="d">far</text><text x="4.008" y="6.012" class="d">too</text><text x="8.016" y="6.012" class="d">much</text><text x="13.026" y="6.012" class="d">time</text><text x="18.036" y="6.012" class="d">worrying</text><text x="27.054" y="6.012" class="d">about</text><text x="33.066" y="6.012" class="d">efficiency</text><text x="44.088" y="6.012" class="d">in</text><text x="47.094" y="6.012" class="d">the</text><text x="51.102" y="6.012" class="d">wrong</text><text x="4.008" y="8.183" class="d">places</text><text x="11.022" y="8.183" class="d">and</text><text x="15.03" y="8.183" class="d">at</text><text x="18.036" y="8.183" class="d">the</text><text x="22.044" y="8.183" class="d">wrong</text><text x="28.056" y="8.183" class="d">times;</text><text x="35.07" y="8.183" class="d">premature</text><text x="45.09" y="8.183" class="d">optimization</text><text x="4.008" y="10.354" class="d">is</text><text x="7.014" y="10.354" class="d">the</text><text x="11.022" y="10.354" class="d">root</text><text x="16.032" y="10.354" class="d">of</text><text x="19.038" y="10.354" class="d">all</text><text x="23.046" y="10.354" class="d">evil</text><text x="28.056" y="10.354" class="d">(or</text><text x="32.064" y="10.354" class="d">at</text><text x="35.07" y="10.354" class="d">least</text><text x="41.082" y="10.354" class="d">most</text><text x="46.092" y="10.354" class="d">of</text><text x="49.098" y="10.354" class="d">it)</text><text x="53.106" y="10.354" class="d">in</text><text x="4.008" y="12.525" class="d">programming.”</text><text x="4.008" y="14.696" class="e">—</text><text x="6.012" y="14.696" class="e">Donald</text><text x="13.026" y="14.696" class="e">Ervin</text><text x="19.038" y="14.696" class="e">Knuth</text></svg></svg></g></svg></svg>