<svg xmlns="http://www.w3.org/2000/svg" xmlns:xlink="http://www.w3.org/1999/xlink" width="740" height="105.13"><rect width="740" height="105.13" class="a" rx="0" ry="0"/><svg xmlns="http://www.w3.org/2000/svg" xmlns:xlink="http://www.w3.org/1999/xlink" width="700" height="65.13" x="20" y="20" viewBox="0 0 70 6.513"><style>.a{fill:#282d35}.b{font-family:&apos;Fira Code&apos;,Monaco,Consolas,Menlo,&apos;Bitstream Vera Sans Mono&apos;,&apos;Powerline Symbols&apos;,monospace}.c{fill:transparent}.d{fill:#b9c0cb;font-weight:700;white-space:pre}.e{fill:#262626}.f{fill:#c6c6c6;font-weight:700;white-space:pre}.g{fill:#e88388}.g,.h,.i,.j{white-space:pre}.h{fill:#b9c0cb}.i{fill:#71bef2}.j{fill:#6f7783}</style><g class="b" font-family="'Fira Code',Monaco,Consolas,Menlo,'Bitstream Vera Sans Mono','Powerline Symbols',monospace" font-size="1.67"><defs><symbol id="a"><rect width="70" height="4" x="0" y="0" class="c"/></symbol></defs><rect width="70" height="6.513" class="a"/><svg width="70" x="0" y="0"><svg x="0"><use xlink:href="#a"/><text x="0" y="1.67" class="d">Error:</text><rect width="3" height="2.171" x="7.014" y="0" class="e"/><text x="7.014" y="1.67" class="f">`n`</text><text x="11.022" y="1.67" class="d">must</text><text x="16.032" y="1.67" class="d">be</text><text x="19.038" y="1.67" class="d">a</text><text x="21.042" y="1.67" class="d">numeric</text><text x="29.058" y="1.67" class="d">vector</text><text x="0" y="3.841" class="g">✖</text><text x="2.004" y="3.841" class="h">You&apos;ve</text><text x="9.018" y="3.841" class="h">supplied</text><text x="18.036" y="3.841" class="h">a</text><text x="20.04" y="3.841" class="i">&lt;character&gt;</text><text x="32.064" y="3.841" class="h">vector.</text><text x="0" y="6.012" class="j">Run</text><text x="4.008" y="6.012" class="j">`rlang::last_error()`</text><text x="26.052" y="6.012" class="j">to</text><text x="29.058" y="6.012" class="j">see</text><text x="33.066" y="6.012" class="j">where</text><text x="39.078" y="6.012" class="j">the</text><text x="43.086" y="6.012" class="j">error</text><text x="49.098" y="6.012" class="j">occurred.</text></svg></svg></g></svg></svg>