<svg xmlns="http://www.w3.org/2000/svg" xmlns:xlink="http://www.w3.org/1999/xlink" width="740" height="148.55"><rect width="740" height="148.55" class="a" rx="0" ry="0"/><svg xmlns="http://www.w3.org/2000/svg" xmlns:xlink="http://www.w3.org/1999/xlink" width="700" height="108.55" x="20" y="20" viewBox="0 0 70 10.855"><style>.a{fill:#282d35}.b{font-family:&apos;Fira Code&apos;,Monaco,Consolas,Menlo,&apos;Bitstream Vera Sans Mono&apos;,&apos;Powerline Symbols&apos;,monospace}.c{fill:transparent}.d{fill:#b9c0cb;white-space:pre}</style><g class="b" font-family="'Fira Code',Monaco,Consolas,Menlo,'Bitstream Vera Sans Mono','Powerline Symbols',monospace" font-size="1.67"><defs><symbol id="a"><rect width="70" height="6" x="0" y="0" class="c"/></symbol></defs><rect width="70" height="10.855" class="a"/><svg width="70" x="0" y="0"><svg x="0"><use xlink:href="#a"/><text x="0" y="1.67" class="d">Lorem</text><text x="6.012" y="1.67" class="d">ad</text><text x="9.018" y="1.67" class="d">ipsum</text><text x="15.03" y="1.67" class="d">veniam</text><text x="22.044" y="1.67" class="d">esse</text><text x="27.054" y="1.67" class="d">nisi</text><text x="32.064" y="1.67" class="d">deserunt</text><text x="41.082" y="1.67" class="d">duis.</text><text x="47.094" y="1.67" class="d">Qui</text><text x="51.102" y="1.67" class="d">incididunt</text><text x="62.124" y="1.67" class="d">elit</text><text x="0" y="3.841" class="d">elit</text><text x="5.01" y="3.841" class="d">mollit</text><text x="12.024" y="3.841" class="d">sint</text><text x="17.034" y="3.841" class="d">nulla</text><text x="23.046" y="3.841" class="d">consectetur</text><text x="35.07" y="3.841" class="d">aute</text><text x="40.08" y="3.841" class="d">commodo</text><text x="48.096" y="3.841" class="d">do</text><text x="51.102" y="3.841" class="d">elit</text><text x="56.112" y="3.841" class="d">laboris</text><text x="64.128" y="3.841" class="d">minim</text><text x="0" y="6.012" class="d">et.</text><text x="4.008" y="6.012" class="d">Laboris</text><text x="12.024" y="6.012" class="d">ipsum</text><text x="18.036" y="6.012" class="d">mollit</text><text x="25.05" y="6.012" class="d">voluptate</text><text x="35.07" y="6.012" class="d">et</text><text x="38.076" y="6.012" class="d">non</text><text x="42.084" y="6.012" class="d">do</text><text x="45.09" y="6.012" class="d">incididunt</text><text x="56.112" y="6.012" class="d">eiusmod.</text><text x="65.13" y="6.012" class="d">Anim</text><text x="0" y="8.183" class="d">consectetur</text><text x="12.024" y="8.183" class="d">mollit</text><text x="19.038" y="8.183" class="d">laborum</text><text x="27.054" y="8.183" class="d">occaecat</text><text x="36.072" y="8.183" class="d">eiusmod</text><text x="44.088" y="8.183" class="d">excepteur.</text><text x="55.11" y="8.183" class="d">Ullamco</text><text x="63.126" y="8.183" class="d">non</text><text x="0" y="10.354" class="d">tempor</text><text x="7.014" y="10.354" class="d">esse</text><text x="12.024" y="10.354" class="d">anim</text><text x="17.034" y="10.354" class="d">tempor</text><text x="24.048" y="10.354" class="d">magna</text><text x="30.06" y="10.354" class="d">non.</text></svg></svg></g></svg></svg>