<svg xmlns="http://www.w3.org/2000/svg" xmlns:xlink="http://www.w3.org/1999/xlink" width="740" height="126.84"><rect width="740" height="126.84" class="a" rx="0" ry="0"/><svg xmlns="http://www.w3.org/2000/svg" xmlns:xlink="http://www.w3.org/1999/xlink" width="700" height="86.84" x="20" y="20" viewBox="0 0 70 8.684"><style>.a{fill:#282d35}.b{font-family:&apos;Fira Code&apos;,Monaco,Consolas,Menlo,&apos;Bitstream Vera Sans Mono&apos;,&apos;Powerline Symbols&apos;,monospace}.c{fill:transparent}.d{fill:#b9c0cb;font-weight:700;white-space:pre}.e{fill:#66c2cd}.e,.f,.g,.h{white-space:pre}.f{fill:#b9c0cb}.g{fill:#e88388}.h{fill:#6f7783}</style><g class="b" font-family="'Fira Code',Monaco,Consolas,Menlo,'Bitstream Vera Sans Mono','Powerline Symbols',monospace" font-size="1.67"><defs><symbol id="a"><rect width="70" height="5" x="0" y="0" class="c"/></symbol></defs><rect width="70" height="8.684" class="a"/><svg width="70" x="0" y="0"><svg x="0"><use xlink:href="#a"/><text x="0" y="1.67" class="d">Error:</text><text x="7.014" y="1.67" class="d">Must</text><text x="12.024" y="1.67" class="d">index</text><text x="18.036" y="1.67" class="d">an</text><text x="21.042" y="1.67" class="d">existing</text><text x="30.06" y="1.67" class="d">element:</text><text x="0" y="3.841" class="e">ℹ</text><text x="2.004" y="3.841" class="f">There</text><text x="8.016" y="3.841" class="f">are</text><text x="12.024" y="3.841" class="f">26</text><text x="15.03" y="3.841" class="f">elements.</text><text x="0" y="6.012" class="g">✖</text><text x="2.004" y="6.012" class="f">You&apos;ve</text><text x="9.018" y="6.012" class="f">tried</text><text x="15.03" y="6.012" class="f">to</text><text x="18.036" y="6.012" class="f">subset</text><text x="25.05" y="6.012" class="f">element</text><text x="33.066" y="6.012" class="f">100.</text><text x="0" y="8.183" class="h">Run</text><text x="4.008" y="8.183" class="h">`rlang::last_error()`</text><text x="26.052" y="8.183" class="h">to</text><text x="29.058" y="8.183" class="h">see</text><text x="33.066" y="8.183" class="h">where</text><text x="39.078" y="8.183" class="h">the</text><text x="43.086" y="8.183" class="h">error</text><text x="49.098" y="8.183" class="h">occurred.</text></svg></svg></g></svg></svg>