<svg xmlns="http://www.w3.org/2000/svg" xmlns:xlink="http://www.w3.org/1999/xlink" width="740" height="61.71"><rect width="740" height="61.71" class="a" rx="0" ry="0"/><svg xmlns="http://www.w3.org/2000/svg" xmlns:xlink="http://www.w3.org/1999/xlink" width="700" height="21.71" x="20" y="20" viewBox="0 0 70 2.171"><style>@keyframes e{0%{transform:translateX(0)}.1%{transform:translateX(-70px)}17.9%{transform:translateX(-140px)}18%{transform:translateX(-210px)}34.2%{transform:translateX(-280px)}50.4%{transform:translateX(-350px)}50.5%{transform:translateX(-420px)}}.a{fill:#282d35}.b{font-family:&apos;Fira Code&apos;,Monaco,Consolas,Menlo,&apos;Bitstream Vera Sans Mono&apos;,&apos;Powerline Symbols&apos;,monospace}.c{fill:#b9c0cb;white-space:pre}.d{fill:transparent}.f{animation-duration:6.27352285385132s;animation-iteration-count:infinite;animation-name:e;animation-timing-function:steps(1,end)}</style><g class="b" font-family="'Fira Code',Monaco,Consolas,Menlo,'Bitstream Vera Sans Mono','Powerline Symbols',monospace" font-size="1.67"><defs><symbol id="1"><text x="0" y="1.67" class="c">⠹</text><text x="2.004" y="1.67" class="c">3/3</text><text x="6.012" y="1.67" class="c">ETA:</text><text x="12.024" y="1.67" class="c">0s</text><text x="15.03" y="1.67" class="c">|</text><text x="17.034" y="1.67" class="c">Tasks</text></symbol><symbol id="a"><rect width="70" height="2" x="0" y="0" class="d"/></symbol></defs><rect width="70" height="2.171" class="a"/><g class="f"><svg width="560" x="0" y="0"><svg x="0"><use xlink:href="#a"/></svg><svg x="70"><use xlink:href="#a"/></svg><svg x="140"><use xlink:href="#a"/></svg><svg x="210"><use xlink:href="#a"/><text x="0" y="1.67" class="c">⠙</text><text x="2.004" y="1.67" class="c">1/3</text><text x="6.012" y="1.67" class="c">ETA:</text><text x="12.024" y="1.67" class="c">2s</text><text x="15.03" y="1.67" class="c">|</text><text x="17.034" y="1.67" class="c">Tasks</text></svg><svg x="280"><use xlink:href="#a"/><text x="0" y="1.67" class="c">⠹</text><text x="2.004" y="1.67" class="c">2/3</text><text x="6.012" y="1.67" class="c">ETA:</text><text x="12.024" y="1.67" class="c">1s</text><text x="15.03" y="1.67" class="c">|</text><text x="17.034" y="1.67" class="c">Tasks</text></svg><svg x="350"><use xlink:href="#a"/><use y="0" xlink:href="#1"/></svg><svg x="420"><use xlink:href="#a"/><use y="0" xlink:href="#1"/></svg><svg x="490"><use xlink:href="#a"/><use y="0" xlink:href="#1"/></svg></svg></g></g></svg></svg>