<svg xmlns="http://www.w3.org/2000/svg" xmlns:xlink="http://www.w3.org/1999/xlink" width="740" height="148.55"><rect width="740" height="148.55" class="a" rx="0" ry="0"/><svg xmlns="http://www.w3.org/2000/svg" xmlns:xlink="http://www.w3.org/1999/xlink" width="700" height="108.55" x="20" y="20" viewBox="0 0 70 10.855"><style>.a{fill:#282d35}.b{font-family:&apos;Fira Code&apos;,Monaco,Consolas,Menlo,&apos;Bitstream Vera Sans Mono&apos;,&apos;Powerline Symbols&apos;,monospace}.c{fill:transparent}.d{fill:#b9c0cb}.d,.e,.f,.g{white-space:pre}.e{fill:#a8cc8c}.f{fill:#6f7783}.g{fill:#e88388}</style><g class="b" font-family="'Fira Code',Monaco,Consolas,Menlo,'Bitstream Vera Sans Mono','Powerline Symbols',monospace" font-size="1.67"><defs><symbol id="a"><rect width="70" height="6" x="0" y="0" class="c"/></symbol></defs><rect width="70" height="10.855" class="a"/><svg width="70" x="0" y="0"><svg x="0"><use xlink:href="#a"/><text x="0" y="1.67" class="d">Style</text><text x="6.012" y="1.67" class="d">&apos;classic&apos;</text><text x="21.042" y="1.67" class="e">#####################</text><text x="55.11" y="1.67" class="d">66%</text><text x="59.118" y="1.67" class="d">|</text><text x="61.122" y="1.67" class="d">ETA:</text><text x="67.134" y="1.67" class="d">3s</text><text x="0" y="3.841" class="d">Style</text><text x="6.012" y="3.841" class="d">&apos;squares&apos;</text><text x="21.042" y="3.841" class="e">■■■■■■■■■■■■■■■■■■■■■</text><text x="55.11" y="3.841" class="d">66%</text><text x="59.118" y="3.841" class="d">|</text><text x="61.122" y="3.841" class="d">ETA:</text><text x="67.134" y="3.841" class="d">3s</text><text x="0" y="6.012" class="d">Style</text><text x="6.012" y="6.012" class="d">&apos;dot&apos;</text><text x="21.042" y="6.012" class="f">────────────────────</text><text x="41.082" y="6.012" class="g">●</text><text x="42.084" y="6.012" class="f">──────────</text><text x="55.11" y="6.012" class="d">66%</text><text x="59.118" y="6.012" class="d">|</text><text x="61.122" y="6.012" class="d">ETA:</text><text x="67.134" y="6.012" class="d">3s</text><text x="0" y="8.183" class="d">Style</text><text x="6.012" y="8.183" class="d">&apos;fillsquares&apos;</text><text x="21.042" y="8.183" class="e">■■■■■■■■■■■■■■■■■■■■■</text><text x="42.084" y="8.183" class="f">□□□□□□□□□□</text><text x="55.11" y="8.183" class="d">66%</text><text x="59.118" y="8.183" class="d">|</text><text x="61.122" y="8.183" class="d">ETA:</text><text x="67.134" y="8.183" class="d">3s</text><text x="0" y="10.354" class="d">Style</text><text x="6.012" y="10.354" class="d">&apos;bar&apos;</text><text x="21.042" y="10.354" class="e">█████████████████████</text><text x="42.084" y="10.354" class="f">██████████</text><text x="55.11" y="10.354" class="d">66%</text><text x="59.118" y="10.354" class="d">|</text><text x="61.122" y="10.354" class="d">ETA:</text><text x="67.134" y="10.354" class="d">3s</text></svg></svg></g></svg></svg>