<svg xmlns="http://www.w3.org/2000/svg" xmlns:xlink="http://www.w3.org/1999/xlink" width="740" height="61.71"><rect width="740" height="61.71" class="a" rx="0" ry="0"/><svg xmlns="http://www.w3.org/2000/svg" xmlns:xlink="http://www.w3.org/1999/xlink" width="700" height="21.71" x="20" y="20" viewBox="0 0 70 2.171"><style>@keyframes f{0%{transform:translateX(0)}.2%{transform:translateX(-70px)}1.5%{transform:translateX(-140px)}1.6%{transform:translateX(-210px)}7.8%{transform:translateX(-280px)}13.9%{transform:translateX(-350px)}20%{transform:translateX(-420px)}26.1%{transform:translateX(-490px)}32.3%{transform:translateX(-560px)}38.5%{transform:translateX(-630px)}44.8%{transform:translateX(-700px)}50.9%{transform:translateX(-770px)}56.9%{transform:translateX(-840px)}62.9%{transform:translateX(-910px)}}.a{fill:#282d35}.b{font-family:&apos;Fira Code&apos;,Monaco,Consolas,Menlo,&apos;Bitstream Vera Sans Mono&apos;,&apos;Powerline Symbols&apos;,monospace}.c,.d{fill:#a8cc8c;white-space:pre}.d{fill:#b9c0cb}.e{fill:transparent}.g{animation-duration:8.36718106269836s;animation-iteration-count:infinite;animation-name:f;animation-timing-function:steps(1,end)}.h{fill:#71bef2;white-space:pre}</style><g class="b" font-family="'Fira Code',Monaco,Consolas,Menlo,'Bitstream Vera Sans Mono','Powerline Symbols',monospace" font-size="1.67"><defs><symbol id="1"><text x="0" y="1.67" class="c">✔</text><text x="2.004" y="1.67" class="d">Downloaded</text><text x="13.026" y="1.67" class="d">10</text><text x="16.032" y="1.67" class="d">files</text><text x="22.044" y="1.67" class="d">in</text><text x="25.05" y="1.67" class="d">4.6s.</text></symbol><symbol id="a"><rect width="70" height="2" x="0" y="0" class="e"/></symbol></defs><rect width="70" height="2.171" class="a"/><g class="g"><svg width="1050" x="0" y="0"><svg x="0"><use xlink:href="#a"/></svg><svg x="70"><use xlink:href="#a"/></svg><svg x="140"><use xlink:href="#a"/></svg><svg x="210"><use xlink:href="#a"/><text x="0" y="1.67" class="d">⠙</text><text x="2.004" y="1.67" class="d">Downloading</text><text x="14.028" y="1.67" class="h">data-1.zip</text><text x="25.05" y="1.67" class="d">[1/10]</text><text x="34.068" y="1.67" class="d">ETA:</text><text x="39.078" y="1.67" class="d">0s</text></svg><svg x="280"><use xlink:href="#a"/><text x="0" y="1.67" class="d">⠹</text><text x="2.004" y="1.67" class="d">Downloading</text><text x="14.028" y="1.67" class="h">data-2.zip</text><text x="25.05" y="1.67" class="d">[2/10]</text><text x="34.068" y="1.67" class="d">ETA:</text><text x="39.078" y="1.67" class="d">2s</text></svg><svg x="350"><use xlink:href="#a"/><text x="0" y="1.67" class="d">⠸</text><text x="2.004" y="1.67" class="d">Downloading</text><text x="14.028" y="1.67" class="h">data-3.zip</text><text x="25.05" y="1.67" class="d">[3/10]</text><text x="34.068" y="1.67" class="d">ETA:</text><text x="39.078" y="1.67" class="d">2s</text></svg><svg x="420"><use xlink:href="#a"/><text x="0" y="1.67" class="d">⠼</text><text x="2.004" y="1.67" class="d">Downloading</text><text x="14.028" y="1.67" class="h">data-4.zip</text><text x="25.05" y="1.67" class="d">[4/10]</text><text x="34.068" y="1.67" class="d">ETA:</text><text x="39.078" y="1.67" class="d">2s</text></svg><svg x="490"><use xlink:href="#a"/><text x="0" y="1.67" class="d">⠴</text><text x="2.004" y="1.67" class="d">Downloading</text><text x="14.028" y="1.67" class="h">data-5.zip</text><text x="25.05" y="1.67" class="d">[5/10]</text><text x="34.068" y="1.67" class="d">ETA:</text><text x="39.078" y="1.67" class="d">2s</text></svg><svg x="560"><use xlink:href="#a"/><text x="0" y="1.67" class="d">⠦</text><text x="2.004" y="1.67" class="d">Downloading</text><text x="14.028" y="1.67" class="h">data-6.zip</text><text x="25.05" y="1.67" class="d">[6/10]</text><text x="34.068" y="1.67" class="d">ETA:</text><text x="39.078" y="1.67" class="d">2s</text></svg><svg x="630"><use xlink:href="#a"/><text x="0" y="1.67" class="d">⠧</text><text x="2.004" y="1.67" class="d">Downloading</text><text x="14.028" y="1.67" class="h">data-7.zip</text><text x="25.05" y="1.67" class="d">[7/10]</text><text x="34.068" y="1.67" class="d">ETA:</text><text x="39.078" y="1.67" class="d">1s</text></svg><svg x="700"><use xlink:href="#a"/><text x="0" y="1.67" class="d">⠇</text><text x="2.004" y="1.67" class="d">Downloading</text><text x="14.028" y="1.67" class="h">data-8.zip</text><text x="25.05" y="1.67" class="d">[8/10]</text><text x="34.068" y="1.67" class="d">ETA:</text><text x="39.078" y="1.67" class="d">1s</text></svg><svg x="770"><use xlink:href="#a"/><text x="0" y="1.67" class="d">⠏</text><text x="2.004" y="1.67" class="d">Downloading</text><text x="14.028" y="1.67" class="h">data-9.zip</text><text x="25.05" y="1.67" class="d">[9/10]</text><text x="34.068" y="1.67" class="d">ETA:</text><text x="39.078" y="1.67" class="d">0s</text></svg><svg x="840"><use xlink:href="#a"/><use y="0" xlink:href="#1"/></svg><svg x="910"><use xlink:href="#a"/><use y="0" xlink:href="#1"/></svg><svg x="980"><use xlink:href="#a"/><use y="0" xlink:href="#1"/></svg></svg></g></g></svg></svg>