<svg xmlns="http://www.w3.org/2000/svg" xmlns:xlink="http://www.w3.org/1999/xlink" width="740" height="604.46"><rect width="740" height="604.46" class="a" rx="0" ry="0"/><svg xmlns="http://www.w3.org/2000/svg" xmlns:xlink="http://www.w3.org/1999/xlink" width="700" height="564.46" x="20" y="20" viewBox="0 0 70 56.446"><style>.a{fill:#282d35}.b{font-family:&apos;Fira Code&apos;,Monaco,Consolas,Menlo,&apos;Bitstream Vera Sans Mono&apos;,&apos;Powerline Symbols&apos;,monospace}.c{fill:transparent}.d{fill:#66c2cd}.d,.e,.f{white-space:pre}.e{fill:#66c2cd;font-weight:700}.f{fill:#b9c0cb}.g{fill:#e88388}.h{fill:#b9bfca}.h,.i,.j{white-space:pre}.i{fill:#ffaf00;font-weight:700}.j{fill:#a8cc8c}.k{font-weight:700;white-space:pre}.k,.l{fill:#71bef2}.l,.m,.n,.o{white-space:pre}.m{fill:#b2b2b2}.n,.o{fill:#b9c0cb;font-style:italic}.o{font-weight:700}.p{fill:#262626}.q,.r{fill:#c6c6c6;white-space:pre}.r{fill:#e4e4e4}.s{fill:#71bef2;font-style:italic}.s,.t,.u{white-space:pre}.t{fill:#9e9e9e;font-style:italic}.u{fill:#dbab79}</style><g class="b" font-family="'Fira Code',Monaco,Consolas,Menlo,'Bitstream Vera Sans Mono','Powerline Symbols',monospace" font-size="1.67"><defs><symbol id="a"><rect width="70" height="27" x="0" y="0" class="c"/></symbol></defs><rect width="70" height="56.446" class="a"/><svg width="70" x="0" y="0"><svg x="0"><use xlink:href="#a"/><text x="0" y="3.841" class="d">──</text><text x="3.006" y="3.841" class="e">Heading</text><text x="11.022" y="3.841" class="e">1</text><text x="13.026" y="3.841" class="d">─────────────────────────────────────────────────────────</text><text x="0" y="8.183" class="f">─</text><text x="2.004" y="8.183" class="e">Heading</text><text x="10.02" y="8.183" class="e">2</text><text x="12.024" y="8.183" class="f">──</text><text x="0" y="12.525" class="d">Heading</text><text x="8.016" y="12.525" class="d">3</text><rect width="14" height="2.171" x="0" y="13.026" class="g"/><text x="0" y="14.696" class="h">✖ Danger alert</text><text x="0" y="16.867" class="i">!</text><text x="2.004" y="16.867" class="i">Warning</text><text x="10.02" y="16.867" class="i">alert</text><text x="0" y="19.038" class="d">ℹ</text><text x="2.004" y="19.038" class="f">Info</text><text x="7.014" y="19.038" class="f">alert</text><text x="0" y="21.209" class="j">✔</text><text x="2.004" y="21.209" class="f">Success</text><text x="10.02" y="21.209" class="f">alert</text><text x="0" y="23.38" class="f">→</text><text x="2.004" y="23.38" class="f">Alert</text><text x="8.016" y="23.38" class="f">for</text><text x="12.024" y="23.38" class="f">starting</text><text x="21.042" y="23.38" class="f">a</text><text x="23.046" y="23.38" class="f">process</text><text x="31.062" y="23.38" class="f">or</text><text x="34.068" y="23.38" class="f">computation</text><text x="0" y="27.722" class="f">Packages</text><text x="9.018" y="27.722" class="f">and</text><text x="13.026" y="27.722" class="f">versions:</text><text x="23.046" y="27.722" class="k">cli</text><text x="27.054" y="27.722" class="l">1.0.0</text><text x="32.064" y="27.722" class="f">.</text><text x="0" y="29.893" class="f">Time</text><text x="5.01" y="29.893" class="f">intervals:</text><text x="16.032" y="29.893" class="m">[3.4s]</text><text x="0" y="32.064" class="n">Emphasis</text><text x="9.018" y="32.064" class="f">and</text><text x="13.026" y="32.064" class="o">strong</text><text x="20.04" y="32.064" class="o">emphasis</text><text x="0" y="34.235" class="f">This</text><text x="5.01" y="34.235" class="f">is</text><text x="8.016" y="34.235" class="f">a</text><text x="10.02" y="34.235" class="f">piece</text><text x="16.032" y="34.235" class="f">of</text><text x="19.038" y="34.235" class="f">code:</text><rect width="20" height="2.171" x="25.05" y="32.565" class="p"/><text x="25.05" y="34.235" class="q">`sum(x) / length(x)`</text><text x="0" y="36.406" class="f">Function</text><text x="9.018" y="36.406" class="f">names:</text><rect width="20" height="2.171" x="16.032" y="34.736" class="p"/><text x="16.032" y="36.406" class="r">`cli::simple_theme()</text><text x="0" y="38.577" class="f">Files:</text><text x="7.014" y="38.577" class="l">/usr/bin/env</text><text x="0" y="40.748" class="f">URLs:</text><text x="6.012" y="40.748" class="s">&lt;https://r-project.org&gt;</text><text x="0" y="45.09" class="f">─</text><text x="2.004" y="45.09" class="e">Longer</text><text x="9.018" y="45.09" class="e">code</text><text x="14.028" y="45.09" class="e">chunk</text><text x="20.04" y="45.09" class="f">──</text><text x="0" y="47.261" class="t">#</text><text x="2.004" y="47.261" class="t">window</text><text x="9.018" y="47.261" class="t">functions</text><text x="19.038" y="47.261" class="t">are</text><text x="23.046" y="47.261" class="t">useful</text><text x="30.06" y="47.261" class="t">for</text><text x="34.068" y="47.261" class="t">grouped</text><text x="42.084" y="47.261" class="t">mutates</text><text x="0" y="49.432" class="f">mtcars</text><text x="7.014" y="49.432" class="j">%&gt;%</text><text x="2.004" y="51.603" class="d">group_by</text><text x="10.02" y="51.603" class="u">(</text><text x="11.022" y="51.603" class="f">cyl</text><text x="14.028" y="51.603" class="u">)</text><text x="16.032" y="51.603" class="j">%&gt;%</text><text x="2.004" y="53.774" class="d">mutate</text><text x="8.016" y="53.774" class="u">(</text><text x="9.018" y="53.774" class="f">rank</text><text x="14.028" y="53.774" class="f">=</text><text x="16.032" y="53.774" class="d">min_rank</text><text x="24.048" y="53.774" class="l">(</text><text x="25.05" y="53.774" class="d">desc(</text><text x="30.06" y="53.774" class="f">mpg</text><text x="33.066" y="53.774" class="d">)</text><text x="34.068" y="53.774" class="l">)</text><text x="35.07" y="53.774" class="u">)</text></svg></svg></g></svg></svg>