<svg xmlns="http://www.w3.org/2000/svg" xmlns:xlink="http://www.w3.org/1999/xlink" width="740" height="582.75"><rect width="740" height="582.75" class="a" rx="0" ry="0"/><svg xmlns="http://www.w3.org/2000/svg" xmlns:xlink="http://www.w3.org/1999/xlink" width="700" height="542.75" x="20" y="20" viewBox="0 0 70 54.275"><style>.a{fill:#282d35}.b{font-family:&apos;Fira Code&apos;,Monaco,Consolas,Menlo,&apos;Bitstream Vera Sans Mono&apos;,&apos;Powerline Symbols&apos;,monospace}.c{fill:transparent}.d{fill:#b9c0cb;white-space:pre}</style><g class="b" font-family="'Fira Code',Monaco,Consolas,Menlo,'Bitstream Vera Sans Mono','Powerline Symbols',monospace" font-size="1.67"><defs><symbol id="a"><rect width="70" height="26" x="0" y="0" class="c"/></symbol></defs><rect width="70" height="54.275" class="a"/><svg width="70" x="0" y="0"><svg x="0"><use xlink:href="#a"/><text x="0" y="1.67" class="d">rcmdcheck</text><text x="0" y="3.841" class="d">├─callr</text><text x="0" y="6.012" class="d">│</text><text x="2.004" y="6.012" class="d">├─processx</text><text x="0" y="8.183" class="d">│</text><text x="2.004" y="8.183" class="d">│</text><text x="4.008" y="8.183" class="d">├─assertthat</text><text x="0" y="10.354" class="d">│</text><text x="2.004" y="10.354" class="d">│</text><text x="4.008" y="10.354" class="d">├─crayon</text><text x="0" y="12.525" class="d">│</text><text x="2.004" y="12.525" class="d">│</text><text x="4.008" y="12.525" class="d">├─debugme</text><text x="0" y="14.696" class="d">│</text><text x="2.004" y="14.696" class="d">│</text><text x="4.008" y="14.696" class="d">│</text><text x="6.012" y="14.696" class="d">└─crayon</text><text x="0" y="16.867" class="d">│</text><text x="2.004" y="16.867" class="d">│</text><text x="4.008" y="16.867" class="d">└─R6</text><text x="0" y="19.038" class="d">│</text><text x="2.004" y="19.038" class="d">└─R6</text><text x="0" y="21.209" class="d">├─clisymbols</text><text x="0" y="23.38" class="d">├─crayon</text><text x="0" y="25.551" class="d">├─desc</text><text x="0" y="27.722" class="d">│</text><text x="2.004" y="27.722" class="d">├─assertthat</text><text x="0" y="29.893" class="d">│</text><text x="2.004" y="29.893" class="d">├─R6</text><text x="0" y="32.064" class="d">│</text><text x="2.004" y="32.064" class="d">├─crayon</text><text x="0" y="34.235" class="d">│</text><text x="2.004" y="34.235" class="d">└─rprojroot</text><text x="0" y="36.406" class="d">│</text><text x="4.008" y="36.406" class="d">└─backports</text><text x="0" y="38.577" class="d">├─digest</text><text x="0" y="40.748" class="d">├─prettyunits</text><text x="0" y="42.919" class="d">│</text><text x="2.004" y="42.919" class="d">├─magrittr</text><text x="0" y="45.09" class="d">│</text><text x="2.004" y="45.09" class="d">└─assertthat</text><text x="0" y="47.261" class="d">├─R6</text><text x="0" y="49.432" class="d">├─rprojroot</text><text x="0" y="51.603" class="d">│</text><text x="2.004" y="51.603" class="d">└─backports</text><text x="0" y="53.774" class="d">└─withr</text></svg></svg></g></svg></svg>